<?xml version="1.0" standalone="no"?>
<!DOCTYPE svg PUBLIC "-//W3C//DTD SVG 20010904//EN"
 "http://www.w3.org/TR/2001/REC-SVG-20010904/DTD/svg10.dtd">
<svg version="1.0" xmlns="http://www.w3.org/2000/svg"
 width="16.000000pt" height="16.000000pt" viewBox="0 0 16.000000 16.000000"
 preserveAspectRatio="xMidYMid meet">
<metadata>
Created by potrace 1.11, written by Peter Selinger 2001-2013
</metadata>
<g transform="translate(0.000000,16.000000) scale(0.006250,-0.006250)"
fill="#000000" stroke="none">
<path d="M0 1280 l0 -1280 1280 0 1280 0 0 1280 0 1280 -1280 0 -1280 0 0
-1280z m1525 1026 c405 -81 746 -377 888 -771 47 -132 62 -227 61 -395 -1
-164 -13 -238 -59 -376 -46 -137 -155 -330 -181 -320 -14 5 -327 238 -353 261
-11 11 -7 23 23 72 50 80 85 187 99 295 20 157 -20 320 -112 460 -89 137 -229
243 -386 295 -67 22 -99 26 -200 27 -139 1 -196 -11 -310 -64 -202 -94 -341
-261 -395 -474 -11 -44 -20 -112 -20 -151 0 -67 -2 -73 -22 -79 -37 -9 -38 -8
-38 42 l0 49 -171 7 c-94 3 -175 3 -181 0 -5 -4 -8 -36 -6 -77 2 -62 0 -72
-15 -75 -32 -6 -17 -66 17 -67 5 0 21 -45 36 -100 37 -137 75 -228 138 -323 7
-10 44 10 156 82 80 53 146 98 146 101 0 3 -13 32 -29 64 -37 72 -71 172 -71
206 0 20 5 25 24 25 20 0 26 -7 35 -46 18 -71 56 -159 91 -210 17 -26 30 -47
28 -49 -113 -86 -369 -275 -372 -275 -9 0 -83 114 -113 175 -165 327 -165 733
0 1060 79 158 221 324 363 427 145 103 328 181 489 207 39 6 81 13 95 15 46 8
274 -4 345 -18z"/>
<path d="M1190 2269 c-202 -18 -403 -95 -571 -220 -65 -48 -219 -201 -219
-217 0 -5 63 -56 139 -115 l140 -106 35 44 c46 56 153 136 238 179 162 82 402
99 573 42 209 -71 362 -203 455 -391 52 -108 70 -179 77 -310 4 -91 2 -125
-16 -198 -16 -69 -59 -177 -98 -248 -2 -4 64 -50 148 -104 120 -78 153 -95
160 -84 64 97 136 287 159 419 17 97 15 291 -4 393 -108 570 -637 969 -1216
916z"/>
</g>
</svg>
